<svg width="300" height="100" viewBox="0 0 300 100" fill="none" xmlns="http://www.w3.org/2000/svg">
<path d="M102.905 63.5905V30.2571H123.245V36.7087H110.611V45.6693H123.245V52.0313H110.611V63.5905H102.905Z" fill="#000008"/>
<path d="M128.351 63.5901V40.651H135.609V45.4001C135.968 43.7872 136.774 42.4432 137.939 41.5471C139.104 40.651 140.448 40.203 141.882 40.203C142.599 40.203 143.315 40.2926 143.763 40.3822V47.1923C142.867 47.1027 142.151 47.013 141.613 47.013C137.581 47.013 135.609 49.6116 135.609 54.6295V63.5005H128.351V63.5901Z" fill="#000008"/>
<path d="M156.311 64.1279C152.996 64.1279 150.308 62.963 148.426 60.7229C146.454 58.4828 145.558 55.5258 145.558 52.0311C145.558 48.5365 146.544 45.6691 148.515 43.3394C150.487 41.0992 153.175 39.9344 156.401 39.9344C158.014 39.9344 159.447 40.2928 160.702 41.0096C161.956 41.7265 162.942 42.6225 163.569 43.877V40.5616H170.827V63.5007H163.569V60.2749C162.942 61.4397 161.956 62.3358 160.612 63.0527C159.358 63.8591 157.924 64.1279 156.311 64.1279ZM158.372 58.1243C160.075 58.1243 161.508 57.5867 162.404 56.4218C163.3 55.257 163.838 53.8233 163.838 52.1208C163.838 50.4182 163.39 48.9846 162.404 47.8197C161.419 46.6548 160.075 46.1172 158.372 46.1172C156.759 46.1172 155.415 46.6548 154.429 47.8197C153.444 48.8949 152.906 50.4182 152.906 52.1208C152.906 53.9129 153.444 55.3466 154.429 56.5114C155.415 57.5867 156.759 58.1243 158.372 58.1243Z" fill="#000008"/>
<path d="M176.829 63.5908V40.6517H184.088V43.9672C184.625 42.8023 185.432 41.8166 186.597 41.0998C187.761 40.3829 189.106 40.0245 190.629 40.0245C194.213 40.0245 196.632 41.4582 197.797 44.236C198.425 42.9815 199.41 41.9062 200.665 41.1894C202.009 40.3829 203.442 40.0245 205.055 40.0245C210.521 40.0245 213.21 43.1607 213.21 49.3435V63.5908H205.862V50.6876C205.862 47.641 204.697 46.2073 202.457 46.2073C199.858 46.2073 198.604 48.089 198.604 51.8525V63.6804H191.435V50.598C191.435 47.641 190.27 46.1177 188.03 46.1177C186.776 46.1177 185.79 46.5657 185.163 47.3722C184.536 48.1786 184.177 49.7019 184.177 51.7629V63.5908H176.829Z" fill="#000008"/>
<path d="M241.705 50.8668C241.705 51.8525 241.615 52.8381 241.526 54.0926H224.59C224.68 55.6159 225.128 56.7808 226.114 57.5872C227.099 58.3937 228.354 58.8417 229.967 58.8417C232.207 58.8417 233.64 58.1249 234.268 56.6912H241.436C241.078 58.9313 239.823 60.813 237.762 62.1571C235.612 63.5908 233.103 64.3077 230.056 64.3077C226.114 64.3077 223.067 63.2324 220.827 61.0818C218.587 58.9313 217.422 55.9743 217.422 52.1213C217.422 48.3578 218.587 45.4008 220.827 43.2503C223.067 41.0998 226.114 40.0245 229.787 40.0245C233.372 40.0245 236.239 41.0102 238.479 43.0711C240.54 45.0424 241.705 47.641 241.705 50.8668ZM224.501 49.5227H234.447C234.447 47.9994 233.999 46.8345 233.192 46.0281C232.386 45.2216 231.221 44.7736 229.608 44.7736C228.085 44.7736 226.83 45.2216 225.934 46.1177C225.038 47.0137 224.59 48.1786 224.501 49.5227Z" fill="#000008"/>
<path d="M245.826 63.5901V40.651H253.084V45.4001C253.443 43.7872 254.249 42.4432 255.414 41.5471C256.579 40.651 257.923 40.203 259.357 40.203C260.074 40.203 260.79 40.2926 261.238 40.3822V47.1923C260.342 47.1027 259.625 47.013 259.088 47.013C255.056 47.013 253.084 49.6116 253.084 54.6295V63.5005H245.826V63.5901Z" fill="#000008"/>
<path d="M73.3354 22.998V39.6647H56.6687L40.002 22.998H73.3354ZM40.002 39.6647H56.6687L73.3354 56.3314H56.6687V72.998L40.002 56.3314V39.6647Z" fill="#000008"/>
</svg>
