<svg width="300" height="100" viewBox="0 0 300 100" fill="none" xmlns="http://www.w3.org/2000/svg">
<path d="M80.4311 48.2814C80.868 48.2292 81.2864 48.2269 81.6709 48.2814C81.8935 47.771 81.9318 46.8909 81.7316 45.9327C81.4341 44.5083 81.0313 43.6463 80.1989 43.7805C79.3667 43.9147 79.336 44.9466 79.6335 46.371C79.8009 47.1721 80.099 47.8571 80.4311 48.2814Z" fill="#000008"/>
<path d="M73.2912 49.4097C73.8866 49.671 74.2526 49.8441 74.396 49.6927C74.488 49.5982 74.4605 49.4182 74.3183 49.186C74.0245 48.7062 73.4199 48.2195 72.7785 47.9463C71.4665 47.3818 69.9024 47.5694 68.6956 48.4366C68.2971 48.7286 67.9193 49.1331 67.9735 49.3785C67.9909 49.458 68.0507 49.5178 68.1904 49.5373C68.5188 49.5748 69.6668 48.9945 70.9888 48.9137C71.9225 48.8564 72.6958 49.1484 73.2912 49.4097Z" fill="#000008"/>
<path d="M72.0931 50.0918C71.3177 50.2143 70.8897 50.4699 70.6151 50.7078C70.3806 50.9128 70.2359 51.139 70.237 51.2984C70.2377 51.374 70.2705 51.4177 70.2963 51.4395C70.3318 51.4708 70.3737 51.488 70.4239 51.488C70.5991 51.488 70.9916 51.3307 70.9916 51.3307C72.0709 50.9444 72.7829 50.9911 73.4887 51.0715C73.8784 51.1152 74.0625 51.1395 74.1482 51.0057C74.1734 50.9675 74.2043 50.8844 74.126 50.7579C73.9444 50.4632 73.1612 49.9649 72.0931 50.0918Z" fill="#000008"/>
<path d="M78.0241 52.6016C78.5508 52.8604 79.1306 52.7587 79.3193 52.3746C79.508 51.9906 79.2341 51.4696 78.7074 51.2108C78.1807 50.952 77.6009 51.0535 77.4122 51.4375C77.2235 51.8216 77.4974 52.3428 78.0241 52.6016Z" fill="#000008"/>
<path d="M81.4078 49.6427C80.9802 49.6356 80.625 50.1053 80.6152 50.692C80.6054 51.2787 80.944 51.7601 81.3718 51.7674C81.7998 51.7745 82.1546 51.3048 82.1646 50.7183C82.1745 50.1314 81.8358 49.65 81.4078 49.6427Z" fill="#000008"/>
<path d="M52.2213 60.169C52.1031 60.1965 51.9691 60.2279 51.8224 60.2251C51.5077 60.2192 51.2411 60.0847 51.0916 59.8548C50.8967 59.5555 50.9079 59.1094 51.123 58.5982C51.1521 58.5295 51.1862 58.4531 51.2233 58.3697C51.5666 57.5998 52.1409 56.3114 51.496 55.0834C51.0108 54.1594 50.2193 53.5839 49.2678 53.463C48.3541 53.3473 47.4136 53.686 46.8138 54.3481C45.8673 55.3921 45.7194 56.8129 45.9024 57.3149C45.9695 57.4988 46.0743 57.5496 46.1506 57.5602C46.3116 57.5819 46.5498 57.4647 46.6988 57.0634C46.7096 57.0346 46.7238 56.9897 46.7417 56.9329C46.8081 56.7206 46.9317 56.3258 47.1346 56.0091C47.379 55.6271 47.7596 55.3642 48.2066 55.2685C48.6619 55.1711 49.127 55.2577 49.5165 55.5128C50.1795 55.9468 50.4348 56.7593 50.1518 57.5345C50.0054 57.9353 49.7677 58.7018 49.8202 59.3315C49.9262 60.6066 50.7103 61.1185 51.4147 61.1727C52.0997 61.1986 52.5785 60.8144 52.6994 60.5331C52.7711 60.3669 52.7107 60.2656 52.672 60.2224C52.5655 60.0889 52.3905 60.1296 52.2213 60.169Z" fill="#000008"/>
<path d="M70.3081 61.8199L70.309 61.8212L70.3101 61.824L70.3081 61.8199ZM92.3044 62.0638C91.867 64.715 90.7401 66.8665 88.8462 68.8458C87.6936 70.0868 86.2939 71.1657 84.6925 71.9503C83.8422 72.397 82.9367 72.7834 81.9802 73.0957C74.841 75.4275 67.5332 72.864 65.177 67.3589C64.9892 66.9451 64.8303 66.5118 64.705 66.0586C63.7011 62.4309 64.5534 58.0786 67.2174 55.339L67.2172 55.3376C67.3816 55.1631 67.549 54.9577 67.549 54.6991C67.549 54.4829 67.4116 54.2548 67.2926 54.0932C66.3605 52.7411 63.132 50.4375 63.7801 45.9792C64.2454 42.7765 67.0464 40.521 69.6579 40.6548C69.8785 40.666 70.0995 40.6797 70.3198 40.6928C71.4513 40.7596 72.4387 40.9046 73.3703 40.9438C74.9294 41.0111 76.3318 40.7844 77.9923 39.4007C78.5527 38.9338 79.0015 38.5291 79.7616 38.4004C79.8413 38.3869 80.0403 38.3157 80.4374 38.3342C80.8427 38.356 81.2286 38.4673 81.5755 38.6981C82.907 39.5841 83.0959 41.7297 83.1648 43.2993C83.204 44.1952 83.3123 46.3632 83.3494 46.9854C83.4341 48.4085 83.8081 48.6091 84.565 48.8583C84.9905 48.9982 85.3855 49.1028 85.9676 49.2661C87.73 49.761 88.775 50.263 89.4336 50.9079C89.8263 51.3107 90.0089 51.739 90.0654 52.1473C90.2734 53.6633 88.8883 55.5361 85.2224 57.2377C81.2153 59.0977 76.3538 59.5685 72.995 59.1945C72.7374 59.1657 71.8213 59.0619 71.8181 59.0615C69.1315 58.6996 67.5987 62.1721 69.2111 64.5508C70.2504 66.084 73.0811 67.0818 75.9134 67.0822C82.4071 67.0834 87.3984 64.3101 89.2547 61.9151C89.3104 61.8435 89.3159 61.8357 89.4034 61.7035C89.4947 61.5657 89.4194 61.4901 89.3056 61.5677C87.7887 62.6056 81.0511 66.7264 73.8444 65.4867C73.8444 65.4867 72.9687 65.3429 72.1692 65.0317C71.5339 64.7846 70.2046 64.1732 70.0429 62.809C75.8589 64.6076 79.5209 62.9074 79.5209 62.9074C79.5871 62.8795 79.6327 62.8037 79.6251 62.7288C79.6157 62.6365 79.5333 62.5694 79.4412 62.5788C79.4412 62.5788 74.6736 63.2846 70.1698 61.6357C70.6603 60.0412 71.9647 60.6171 73.9364 60.7761C77.4901 60.9879 80.6753 60.4687 83.029 59.7932C85.0688 59.2076 87.7479 58.0536 89.8286 56.4114C90.5305 57.9531 90.7785 59.6498 90.7785 59.6498C90.7785 59.6498 91.3217 59.5525 91.7756 59.8321C92.2048 60.0959 92.5194 60.6448 92.3044 62.0638ZM59.1819 36.8077C61.4158 34.2261 64.1662 31.9816 66.6296 30.7213C66.7148 30.6778 66.8052 30.7703 66.759 30.8541C66.5634 31.2084 66.1867 31.9667 66.0674 32.5424C66.0488 32.6319 66.1464 32.6995 66.222 32.648C67.7547 31.603 70.4207 30.4836 72.7593 30.3398C72.8599 30.3336 72.9084 30.4625 72.8285 30.5237C72.4729 30.7964 72.084 31.1741 71.7998 31.5558C71.7515 31.6209 71.7971 31.7145 71.8779 31.715C73.5201 31.7267 75.8351 32.3015 77.3438 33.1474C77.4459 33.2049 77.3731 33.4025 77.259 33.3764C74.9761 32.8532 71.2392 32.4563 67.3576 33.403C63.8923 34.2483 61.2473 35.5534 59.3175 36.9567C59.2202 37.0277 59.1029 36.8988 59.1819 36.8077ZM47.5757 49.0852C45.553 49.4784 43.7704 50.6248 42.6803 52.2084C42.0286 51.665 40.8146 50.6129 40.6003 50.203C38.8598 46.8982 42.4996 40.4729 45.0425 36.8443C51.3264 27.8766 61.1685 21.089 65.7248 22.3204C66.4652 22.5299 68.9185 25.3745 68.9185 25.3745C68.9185 25.3745 64.364 27.9013 60.1408 31.4237C54.4498 35.8055 50.1509 42.1742 47.5757 49.0852ZM50.9746 64.2503C50.6684 64.3025 50.3561 64.3232 50.0412 64.3158C46.9977 64.2341 43.7104 61.4942 43.3838 58.2448C43.0227 54.6533 44.8577 51.889 48.107 51.2338C48.4954 51.1554 48.9649 51.1103 49.471 51.1367C51.2916 51.2363 53.9741 52.6344 54.5872 56.6001C55.1299 60.1124 54.2677 63.6888 50.9746 64.2503ZM92.2016 57.8906C92.1755 57.7985 92.0055 57.1774 91.7722 56.4293C91.5388 55.6813 91.2972 55.1546 91.2972 55.1546C92.2334 53.7531 92.2499 52.4997 92.1255 51.7903C91.9927 50.9102 91.6265 50.1604 90.888 49.3854C90.1499 48.6103 88.6399 47.8165 86.5179 47.2209C86.2752 47.1526 85.4748 46.933 85.4045 46.9117C85.399 46.8657 85.3459 44.2866 85.2975 43.1796C85.2625 42.3792 85.1938 41.1299 84.8061 39.899C84.344 38.2335 83.539 36.7758 82.5344 35.8433C85.3072 32.969 87.038 29.8025 87.0339 27.0863C87.0261 21.8624 80.6107 20.2818 72.7048 23.5554C72.6964 23.5591 71.0416 24.2608 71.0297 24.2667C71.0223 24.2594 68.0013 21.2954 67.956 21.2558C58.9421 13.3935 30.7597 44.7194 39.7699 52.3277L41.7393 53.9958C41.2284 55.319 41.0278 56.8351 41.1918 58.4651C41.402 60.5592 42.4822 62.5664 44.2327 64.1173C45.8946 65.5896 48.0796 66.5214 50.1999 66.5198C53.7062 74.6001 61.7179 79.5572 71.1117 79.8364C81.1881 80.1357 89.6466 75.4074 93.1909 66.9137C93.4226 66.3176 94.4064 63.6318 94.4064 61.2609C94.4064 58.878 93.0594 57.8906 92.2016 57.8906Z" fill="#000008"/>
<path d="M126.779 53.1805C122.038 53.1805 121.955 58.3551 120.835 58.3551C120.601 58.3551 120.415 58.1481 120.415 57.8657C120.415 57.4874 120.513 57.1592 120.513 56.5489C120.513 54.6915 119.206 53.1805 116.464 53.1805C114.137 53.1805 112.434 54.3461 111.394 56.502C110.867 57.595 110.912 58.3551 110.38 58.3551C110.183 58.3551 110.031 58.1685 110.031 57.9005C110.031 57.1093 110.73 56.3841 110.73 54.6839C110.73 54.2415 110.695 53.8682 110.625 53.565H106.115V71.0474H112.233V61.5619C112.233 59.6921 113.034 58.4953 114.401 58.4953C115.307 58.4953 116.115 59.2867 116.115 60.7373V71.0474H122.233V61.5619C122.233 59.4628 123.205 58.4953 124.401 58.4953C125.403 58.4953 126.114 59.4228 126.114 60.7373V71.0474H132.163V60.3131C132.163 55.6221 130.301 53.1805 126.779 53.1805Z" fill="#000008"/>
<path d="M168.628 48.6699H162.579V71.0474H168.628V48.6699Z" fill="#000008"/>
<path d="M170.623 62.0963C170.623 68.0443 174.471 71.4668 179.469 71.4668C182.334 71.4668 184.524 70.3335 185.867 69.229V63.46C184.508 64.3903 182.415 65.4529 180.168 65.4529C177.366 65.4529 175.902 64.2888 175.902 62.2713C175.902 60.3469 177.589 59.1245 180.063 59.1245C182.303 59.1245 184.358 60.0158 185.867 61.0475V54.9286C184.59 53.9778 182.334 53.1453 179.469 53.1453C174.107 53.1453 170.623 56.4991 170.623 62.0963Z" fill="#000008"/>
<path d="M199.188 53.2144C196.728 53.2144 195.303 54.354 194.258 56.4661C193.797 57.3973 193.763 58.3192 193.244 58.3192C193.048 58.3192 192.895 58.1388 192.895 57.8647C192.895 56.8962 194.048 55.4502 194.048 51.1863C194.048 50.1146 193.943 49.2867 193.734 48.7039H188.454V71.0463H194.573V61.6376C194.573 59.8751 195.5 58.529 196.915 58.529C197.969 58.529 198.698 59.3855 198.698 60.7712V71.0463H204.817V60.1025C204.817 55.5352 202.826 53.2144 199.188 53.2144Z" fill="#000008"/>
<path d="M253.699 67.3761C252.464 67.3761 251.112 66.0959 251.112 62.8655C251.112 60.052 252.217 58.39 253.699 58.39C255.404 58.39 256.356 60.0316 256.356 62.8655C256.356 66.0137 255.26 67.3761 253.699 67.3761ZM255.342 53.1453C252.639 53.1453 251.257 54.6858 250.484 56.1107C249.873 57.2381 249.785 58.3202 249.259 58.3202C249.002 58.3202 248.874 58.1688 248.874 57.8656C248.874 57.3302 249.573 56.4213 249.573 54.9286C249.573 54.3229 249.526 53.8681 249.433 53.5649H244.853V75.5228H251.007V68.6262C251.788 70.2943 253.422 71.397 255.657 71.397C259.687 71.397 262.44 68.0723 262.44 62.2713C262.44 56.9194 259.888 53.1453 255.342 53.1453Z" fill="#000008"/>
<path d="M141.042 67.1132C139.907 67.1132 139.296 66.6165 139.296 65.7515C139.296 64.6236 140.356 63.761 143.102 63.761C143.707 63.761 144.255 63.7816 144.751 63.8223C144.509 65.4313 143.106 67.1132 141.042 67.1132ZM143.102 53.1453C139.941 53.1453 137.048 53.9269 135.036 54.9263V59.9897C137.377 58.7253 139.777 57.7896 141.88 57.7896C144.134 57.7896 145.088 58.9781 144.954 60.542C144.044 60.4477 143.035 60.4087 141.81 60.4087C137.025 60.4087 134.024 62.277 134.024 66.3451C134.024 69.6863 136.625 71.4084 139.471 71.4084C142.247 71.4084 144.158 70.0811 145.265 68.0791C145.895 66.9391 145.841 66.2402 146.252 66.2402C146.453 66.2402 146.594 66.384 146.594 66.6082C146.594 67.3381 146.385 67.7652 146.385 68.7545C146.385 69.6799 146.506 70.4592 146.699 71.0242H151.099V61.6658C151.099 56.3496 148.668 53.1453 143.102 53.1453Z" fill="#000008"/>
<path d="M164.918 37.0871V27.2785H160.706V36.5849C160.706 38.8903 159.163 40.4332 157.136 40.4332C155.102 40.4332 153.566 38.8903 153.566 36.5849V27.2785H149.361L149.384 37.0871C149.384 41.3588 152.803 44.4811 157.148 44.4811C161.492 44.4811 164.918 41.365 164.918 37.0871Z" fill="#000008"/>
<path d="M181.177 44.1422H185.382V31.2177H190.398V27.2785H176.154V31.2177H181.177V44.1422Z" fill="#000008"/>
<path d="M173.441 27.2855H169.236V44.1494H173.441V27.2855Z" fill="#000008"/>
<path d="M137.415 44.1422H141.62V31.2177H146.636V27.2785H132.392V31.2177H137.415V44.1422Z" fill="#000008"/>
<path d="M110.32 27.2855H106.115V44.1494H110.32V27.2855Z" fill="#000008"/>
<path d="M118.842 34.8365C118.842 32.5311 120.385 30.988 122.412 30.988C124.439 30.988 125.982 32.5311 125.982 34.8365V44.1424H130.187L130.175 34.334C130.175 30.0621 126.75 26.9398 122.406 26.9398C118.061 26.9398 114.636 30.0562 114.636 34.334V44.1424H118.842V34.8365Z" fill="#000008"/>
<path d="M236.914 53.1805C232.174 53.1805 232.091 58.3551 230.97 58.3551C230.736 58.3551 230.551 58.1481 230.551 57.8657C230.551 57.4874 230.649 57.1592 230.649 56.5489C230.649 54.6915 229.342 53.1805 226.6 53.1805C224.272 53.1805 222.57 54.3461 221.53 56.502C221.003 57.595 221.048 58.3551 220.516 58.3551C220.319 58.3551 220.166 58.1685 220.166 57.9005C220.166 57.1093 220.866 56.3841 220.866 54.6839C220.866 54.2415 220.831 53.8682 220.761 53.565H216.25V71.0474H222.369V61.5619C222.369 59.6921 223.17 58.4953 224.537 58.4953C225.443 58.4953 226.25 59.2867 226.25 60.7373V71.0474H232.369V61.5619C232.369 59.4628 233.341 58.4953 234.537 58.4953C235.539 58.4953 236.25 59.4228 236.25 60.7373V71.0474H242.299V60.3131C242.299 55.6221 240.437 53.1805 236.914 53.1805Z" fill="#000008"/>
<path d="M210.452 54.7888C209.17 54.7888 208.156 54.6026 207.41 54.2293V71.0474H213.459V54.2293C212.674 54.574 211.739 54.7888 210.452 54.7888Z" fill="#000008"/>
<path d="M210.415 48.5645C207.915 48.5645 206.604 49.6703 206.604 50.942C206.604 52.3112 208.153 53.3198 210.415 53.3198C212.676 53.3198 214.226 52.3112 214.226 50.942C214.226 49.6703 212.915 48.5645 210.415 48.5645Z" fill="#000008"/>
<path d="M156.865 54.7888C155.583 54.7888 154.569 54.6026 153.823 54.2293V71.0474H159.872V54.2293C159.087 54.574 158.152 54.7888 156.865 54.7888Z" fill="#000008"/>
<path d="M156.828 48.5645C154.328 48.5645 153.017 49.6703 153.017 50.942C153.017 52.3112 154.566 53.3198 156.828 53.3198C159.09 53.3198 160.639 52.3112 160.639 50.942C160.639 49.6703 159.328 48.5645 156.828 48.5645Z" fill="#000008"/>
</svg>
