<svg width="300" height="100" viewBox="0 0 300 100" fill="none" xmlns="http://www.w3.org/2000/svg">
<path fill-rule="evenodd" clip-rule="evenodd" d="M163.61 30.6362C163.61 29.1803 164.79 28 166.246 28H168.882V63.4201H163.61V61.0927C161.146 63.1025 158.001 64.3091 154.573 64.3091C146.671 64.3091 140.264 57.9028 140.264 50.0001C140.264 42.0976 146.671 35.6911 154.573 35.6911C158.001 35.6911 161.146 36.8978 163.61 38.9076V30.6362ZM145.988 50.0001C145.988 54.9094 149.982 58.9035 154.891 58.9035C159.801 58.9035 163.795 54.9094 163.795 50.0001C163.795 45.0908 159.801 41.0967 154.891 41.0967C149.982 41.0967 145.988 45.0908 145.988 50.0001Z" fill="#030404"/>
<path fill-rule="evenodd" clip-rule="evenodd" d="M98.2902 38.9074V36.5801H103.563V63.42H98.2902V61.0926C95.8262 63.1024 92.6811 64.3089 89.2536 64.3089C81.3508 64.3089 74.9444 57.9027 74.9444 49.9999C74.9444 42.0975 81.3508 35.6909 89.2536 35.6909C92.6811 35.6909 95.8262 36.8977 98.2902 38.9074ZM80.6681 49.9999C80.6681 54.9094 84.6619 58.9033 89.5715 58.9033C94.4808 58.9033 98.4749 54.9094 98.4749 49.9999C98.4749 45.0906 94.4808 41.0967 89.5715 41.0967C84.6619 41.0967 80.6681 45.0906 80.6681 49.9999Z" fill="#030404"/>
<path fill-rule="evenodd" clip-rule="evenodd" d="M172.698 49.9999C172.698 42.0973 179.104 35.6909 187.007 35.6909C194.909 35.6909 201.316 42.0973 201.316 49.9999C201.316 57.9027 194.909 64.3089 187.007 64.3089C179.104 64.3089 172.698 57.9027 172.698 49.9999ZM195.592 49.9999C195.592 45.266 191.74 41.4146 187.007 41.4146C182.272 41.4146 178.421 45.266 178.421 49.9999C178.421 54.7339 182.272 58.5852 187.007 58.5852C191.74 58.5852 195.592 54.7339 195.592 49.9999Z" fill="#030404"/>
<path fill-rule="evenodd" clip-rule="evenodd" d="M243.97 36.5801V38.9074C241.506 36.8977 238.36 35.6909 234.933 35.6909C227.031 35.6909 220.624 42.0975 220.624 49.9999C220.624 57.9027 227.031 64.3089 234.933 64.3089C238.36 64.3089 241.506 63.1024 243.97 61.0926V63.42H249.242V36.5801H243.97ZM235.252 58.9033C230.341 58.9033 226.348 54.9094 226.348 49.9999C226.348 45.0906 230.341 41.0967 235.252 41.0967C240.16 41.0967 244.154 45.0906 244.154 49.9999C244.154 54.9094 240.16 58.9033 235.252 58.9033Z" fill="#030404"/>
<path d="M204.964 49.8779C204.964 43.7187 207.619 40.246 210.688 38.2824C214.889 35.5931 219.864 35.7385 219.864 35.7385V41.4608C219.864 41.4608 210.688 40.9745 210.688 49.8779V63.4199H204.964V49.8779Z" fill="#030404"/>
<path d="M130.724 38.5525C128.333 36.7561 125.36 35.6909 122.139 35.6909C118.918 35.6909 115.945 36.7561 113.554 38.5525C110.078 41.1633 107.83 45.3188 107.83 49.9999V63.42H113.554V49.9999C113.554 45.266 117.405 41.4146 122.139 41.4146C126.873 41.4146 130.724 45.266 130.724 49.9999V63.42H136.448V49.9999C136.448 45.3188 134.2 41.1633 130.724 38.5525Z" fill="#030404"/>
<path fill-rule="evenodd" clip-rule="evenodd" d="M57.309 35.6909C53.8813 35.6909 50.7362 36.8975 48.2722 38.9073V36.5799H43V72H45.636C47.092 72 48.2722 70.8198 48.2722 69.3638V61.0926C50.7362 63.1024 53.8813 64.3089 57.309 64.3089C65.2117 64.3089 71.6181 57.9025 71.6181 49.9999C71.6181 42.0974 65.2117 35.6909 57.309 35.6909ZM56.9909 58.9033C52.0816 58.9033 48.0875 54.9092 48.0875 49.9999C48.0875 45.0906 52.0816 41.0965 56.9909 41.0965C61.9004 41.0965 65.8944 45.0906 65.8944 49.9999C65.8944 54.9092 61.9004 58.9033 56.9909 58.9033Z" fill="#030404"/>
<path fill-rule="evenodd" clip-rule="evenodd" d="M254.465 34.2727L255.249 35.4665H255.708L254.9 34.2603C255.074 34.2603 255.671 34.0366 255.671 33.3651C255.671 32.8055 255.262 32.4449 254.751 32.4449H253.521V35.4665H253.881V34.2727H254.465ZM253.881 32.7806H254.751C255.012 32.7806 255.298 33.0294 255.298 33.3651C255.298 33.6759 255.012 33.9246 254.751 33.9246H253.881V32.7806Z" fill="#030404"/>
<path fill-rule="evenodd" clip-rule="evenodd" d="M251.879 33.9495C251.879 35.4043 253.06 36.5856 254.514 36.5856C255.981 36.5856 257.151 35.4043 257.151 33.9495C257.151 32.4822 255.981 31.3134 254.514 31.3134C253.06 31.3134 251.879 32.4822 251.879 33.9495ZM252.202 33.9495C252.202 32.6563 253.234 31.6367 254.514 31.6367C255.796 31.6367 256.828 32.6563 256.828 33.9495C256.828 35.2177 255.796 36.2622 254.514 36.2622C253.234 36.2622 252.202 35.2177 252.202 33.9495Z" fill="#030404"/>
</svg>
