<svg width="300" height="100" viewBox="0 0 300 100" fill="none" xmlns="http://www.w3.org/2000/svg">
<path fill-rule="evenodd" clip-rule="evenodd" d="M49 36.405L70.9678 25L93.1716 36.405L70.9678 47.8387L49 36.405ZM180.879 41.9431V41.6677C180.879 37.9147 183.087 36.7111 186.805 36.9777V30.1155C177.897 29.5725 173.675 34.0354 173.675 41.6677V41.9431H169.647V48.8063H173.675V69.5804H180.879V48.8063H189.168V69.5804H196.372V48.8063H202.298V41.9431H196.372V41.6677C196.372 37.9147 198.541 36.7111 202.298 36.9777V30.1155C193.39 29.5725 189.168 34.0354 189.168 41.6677V41.9431H180.879ZM130.527 49.458C132.811 47.6412 134.205 45.0444 134.205 41.7072C134.205 35.2389 128.938 30.8166 122.315 30.8166H106.937V69.5014H123.554C130.332 69.5014 135.755 64.9299 135.755 58.3047C135.678 54.3059 133.663 51.2441 130.527 49.458ZM122.353 37.9848C124.832 37.9848 126.537 39.8104 126.537 42.2502C126.537 44.6979 124.754 46.5146 122.353 46.5146H114.646V37.9848H122.353ZM123.515 62.4122H114.646V53.2978H123.515C126.15 53.2978 128.047 55.233 128.047 57.8298C128.047 60.4671 126.15 62.4122 123.515 62.4122ZM158.22 41.9036V56.8237C158.22 61.6321 155.587 63.6859 152.062 63.6859C148.808 63.6859 146.523 61.7506 146.523 57.9878V41.9036H139.318V58.8774C139.318 66.2431 143.928 70.3209 149.893 70.3209C153.65 70.3209 156.554 68.9189 158.182 66.4406V69.5409H165.385V41.9036H158.22ZM232.161 58.6493H211.091C212.137 62.2937 215.157 63.8438 218.915 63.8438C221.742 63.8438 223.989 62.6778 225.19 61.0891L231 64.3869C228.405 68.1477 224.221 70.3209 218.837 70.3209C209.464 70.3209 203.538 63.9623 203.538 55.708C203.538 47.4437 209.503 41.0841 218.295 41.0841C226.546 41.0841 232.433 47.5622 232.433 55.708C232.433 56.7842 232.317 57.7222 232.161 58.6493ZM218.295 47.5622C214.423 47.5622 211.787 49.6159 210.974 53.1398H225.228C224.337 49.1519 221.316 47.5622 218.295 47.5622ZM242.852 46.6726V41.9036H235.648V69.5409H242.852V56.3201C242.852 50.5036 247.578 48.8458 251.334 49.3089V41.3616C247.81 41.3616 244.285 42.9117 242.852 46.6726ZM70.9678 67.3983L55.9807 59.2526L49 63.0342L70.9678 74.9615L93.1716 63.0342L86.112 59.2526L70.9678 67.3983ZM55.9807 46.407L70.9678 53.7915L86.112 46.407L93.1716 49.8529L70.9678 60.6843L49 49.8529L55.9807 46.407Z" fill="#231F20"/>
</svg>
